# AST/ASF file generated using VICON BodyLanguage
# -----------------------------------------------
:version 1.10
:name VICON
:units
  mass 1.0
  length 0.45
  angle deg
:documentation
   .ast/.asf automatically generated from VICON data using
   VICON BodyBuilder and BodyLanguage model FoxedUp or BRILLIANT.MOD
:root
   order TX TY TZ RX RY RZ
   axis XYZ
   position 0 0 0  
   orientation 0 0 0 
:bonedata
  begin
     id 1 
     name lhipjoint
     direction 0.584852 -0.759097 0.285867 
     length 2.43633 
     axis 0 0 0  XYZ
  end
  begin
     id 2 
     name lfemur
     direction 0.34202 -0.939693 0  
     length 7.14704  
     axis 0 0 20  XYZ
    dof rx ry rz
    limits (-160.0 20.0)
           (-70.0 70.0)
           (-60.0 70.0)
  end
  begin
     id 3 
     name ltibia
     direction 0.342022 -0.939692 0   
     length 7.68483   
     axis 0 0 20   XYZ
    dof rx
    limits (-10.0 170.0)
  end
  begin
     id 4 
     name lfoot
     direction 0.0999605 -0.274639 0.956337   
     length 2.40452   
     axis -90 7.62852e-016 20   XYZ
    dof rx rz
    limits (-45.0 90.0)
           (-70.0 20.0)
  end
  begin
     id 5 
     name ltoes
     direction 1.53468e-011 -4.21881e-011 1   
     length 1.19837   
     axis -90 7.62852e-016 20   XYZ
    dof rx
    limits (-90.0 20.0)
  end
  begin
     id 6 
     name rhipjoint
     direction -0.569886 -0.769002 0.289597   
     length 2.40495  
     axis 0 0 0  XYZ 
  end
  begin
     id 7 
     name rfemur
     direction -0.34202 -0.939693 0   
     length 7.45086   
     axis 0 0 -20   XYZ
    dof rx ry rz
    limits (-160.0 20.0)
           (-70.0 70.0)
           (-70.0 60.0)
  end
  begin
     id 8 
     name rtibia
     direction -0.34202 -0.939693 0   
     length 7.76831   
     axis 0 0 -20   XYZ
    dof rx
    limits (-10.0 170.0)
 end
 begin
     id 9 
     name rfoot
     direction -0.0798572 -0.219406 0.97236   
     length 2.35911  
     axis -90 -7.62852e-016 -20   XYZ
    dof rx rz
    limits (-45.0 90.0)
           (-20.0 70.0)
  end
  begin
     id 10 
     name rtoes
     direction -1.53469e-011 -4.21728e-011 1   
     length 1.18261   
     axis -90 -7.62852e-016 -20   XYZ
    dof rx
    limits (-90.0 20.0)
  end
  begin
     id 11 
     name lowerback
     direction 0.0242088 0.999437 0.0232389   
     length 2.1561   
     axis 0 0 0   XYZ
    dof rx ry rz
    limits (-20.0 45.0)
           (-30.0 30.0)
           (-30.0 30.0)
  end
  begin
     id 12 
     name upperback
     direction -0.0356893 0.999013 -0.0264323   
     length 2.14431   
     axis 0 0 0   XYZ
    dof rx ry rz
    limits (-20.0 45.0)
           (-30.0 30.0)
           (-30.0 30.0)
  end
  begin
     id 13 
     name thorax
     direction -0.0472163 0.998194 -0.0371284   
     length 2.16169   
     axis 0 0 0   XYZ
    dof rx ry rz
    limits (-20.0 45.0)
           (-30.0 30.0)
           (-30.0 30.0)
  end
  begin
     id 14 
     name lowerneck
     direction 0.00863244 0.999921 0.00911972   
     length 1.58651   
     axis 0 0 0   XYZ
    dof rx ry rz
    limits (-20.0 45.0)
           (-30.0 30.0)
           (-30.0 30.0)
  end
  begin
     id 15 
     name upperneck
     direction 0.149523 0.979068 -0.138086   
     length 1.57486   
     axis 0 0 0   XYZ
    dof rx ry rz
    limits (-20.0 45.0)
           (-30.0 30.0)
           (-30.0 30.0)
  end
  begin
     id 16
     name head
     direction 0.0445219 0.997708 -0.0509576  
     length 1.6019  
     axis 0 0 0   XYZ
    dof rx ry rz
    limits (-20.0 45.0)
           (-30.0 30.0)
           (-30.0 30.0)
  end
  begin
     id 17 
     name lclavicle
     direction 0.911271 0.381667 -0.154644  
     length 3.80848  
     axis 0 0 0   XYZ
    dof ry rz
    limits (-20.0 10.0)
           (0.0 20.0)
  end
  begin
     id 18 
     name lhumerus
     direction 1 -4.49003e-011 2.1308e-027   
     length 5.19069   
     axis 180 -30 -90   XYZ
    dof rx ry rz
    limits (-60.0 90.0)
           (-90.0 90.0)
           (-90.0 90.0)
  end
  begin
     id 19
     name lradius
     direction 1 -4.48914e-011 4.01554e-027   
     length 3.30016   
     axis 180 -30 -90   XYZ
    dof rx
    limits (-10.0 170.0)
  end
  begin
     id 20
     name lwrist
     direction 1 -4.49003e-011 1.1934e-026   
     length 1.65008   
     axis -8.46377e-015 90 90   XYZ
    dof ry
    limits (-180.0 0.0)
 end
  begin
     id 21 
     name lhand
     direction 1 -4.49034e-011 2.38659e-026   
     length 0.707698   
     axis -1.52313e-014 90 90   XYZ
    dof rx rz
    limits (-90.0 90.0)
           (-45.0 45.0)
  end
  begin
     id 22 
     name lfingers
     direction 1 -4.48691e-011 4.77775e-026   
     length 0.570564   
     axis -3.04623e-014 90 90   XYZ
    dof rx
    limits (0.0 90.0)
  end
  begin
     id 23
     name lthumb
     direction 0.707107 -6.34832e-011 0.707107   
     length 0.819219   
     axis -90 45 -1.62303e-014   XYZ
    dof rx rz
    limits (-45.0 45.0)
           (-45.0 45.0)
  end
  begin
     id 24 
     name rclavicle
     direction -0.815579 0.573708 -0.0754329   
     length 3.54371  
     axis 0 0 0   XYZ 
    dof ry rz
    limits (-10.0 20.0)
           (-20.0 0.0)
  end
  begin
     id 25 
     name rhumerus
     direction -1 -4.48956e-011 3.05351e-028  
     length 5.23924   
     axis 180 30 90   XYZ
    dof rx ry rz
    limits (-90.0 60.0)
           (-90.0 90.0)
           (-90.0 90.0)
  end
  begin
     id 26 
     name rradius
     direction -1 -4.49013e-011 3.53849e-027   
     length 3.32953   
     axis 180 30 90   XYZ
    dof rx
    limits (-10.0 170.0)
  end
  begin
     id 27 
     name rwrist
     direction -1 -4.48901e-011 1.19374e-026   
     length 1.66477   
     axis -8.46377e-015 -90 -90   XYZ
    dof ry
    limits (-180.0 0.0)
  end
  begin
     id 28
     name rhand
     direction -1 -4.48877e-011 2.38764e-026   
     length 0.607414   
     axis -1.52313e-014 -90 -90   XYZ
    dof rx rz
    limits (-90.0 90.0)
           (-45.0 45.0)
  end
  begin
     id 29
     name rfingers
     direction -1 -4.48882e-011 4.77521e-026   
     length 0.489712   
     axis -3.04623e-014 -90 -90   XYZ
    dof rx
    limits (0.0 90.0)
  end
  begin
     id 30
     name rthumb
     direction -0.707107 -6.34974e-011 0.707107   
     length 0.703132   
     axis -90 -45 1.62303e-014   XYZ
    dof rx rz
    limits (-45.0 45.0)
           (-45.0 45.0)
  end
:hierarchy
  begin
    root lhipjoint rhipjoint lowerback
    lhipjoint lfemur
    lfemur ltibia
    ltibia lfoot
    lfoot ltoes
    rhipjoint rfemur
    rfemur rtibia
    rtibia rfoot
    rfoot rtoes
    lowerback upperback
    upperback thorax
    thorax lowerneck lclavicle rclavicle
    lowerneck upperneck
    upperneck head
    lclavicle lhumerus
    lhumerus lradius
    lradius lwrist
    lwrist lhand lthumb
    lhand lfingers
    rclavicle rhumerus
    rhumerus rradius
    rradius rwrist
    rwrist rhand rthumb
    rhand rfingers
  end

#!OML:ASF E:\VariousWalksJay\Project 1\Capture day 1\Session 1\Actor2.ASF
:FULLY-SPECIFIED
:DEGREES
339
root 20.0041 14.9358 -18.6421 8.28885 -28.1189 -8.57026
lowerback 23.7257 -1.81352 8.38299
upperback 14.018 -1.16256 -0.357036
thorax 2.24865 -0.212897 -4.89814
lowerneck 4.0155 -0.988931 -0.74797
upperneck -15.9411 -0.10409 9.48362
head -5.43604 -0.70659 3.11361
rclavicle -5.28767e-014 1.35174e-014
rhumerus -43.3563 32.9739 -88.6773
rradius 61.6228
rwrist 4.25419
rhand -7.46769 -12.3095
rfingers 7.12502
rthumb 18.421 -41.4573
lclavicle -5.28767e-014 1.35174e-014
lhumerus 25.0763 -20.51 63.298
lradius 74.1593
lwrist 84.6985
lhand -39.4436 6.78589
lfingers 7.12502
lthumb -12.4314 36.3962
rfemur -50.7005 -3.58773 37.7132
rtibia 71.9291
rfoot -28.954 -11.8474
rtoes -4.54359
lfemur -64.0677 26.6041 -10.9797
ltibia 125.77
lfoot -18.599 -4.84192
ltoes -17.1141
340
root 19.9651 14.9115 -18.5824 7.98647 -28.4064 -8.9135
lowerback 24.2883 -1.8088 8.53401
upperback 14.0692 -1.08813 -0.320282
thorax 2.05518 -0.179538 -4.95617
lowerneck 4.03891 -0.964591 -0.743936
upperneck -15.9544 -0.0658833 9.50452
head -5.44633 -0.690684 3.11793
rclavicle 2.78299e-015 6.75868e-015
rhumerus -43.1314 33.0291 -88.5257
rradius 61.7257
rwrist 4.28586
rhand -7.52336 -12.3056
rfingers 7.12502
rthumb 18.3674 -41.4585
lclavicle 2.78299e-015 6.75868e-015
lhumerus 24.9592 -20.3742 63.2147
lradius 74.2801
lwrist 84.6756
lhand -39.6802 5.48084
lfingers 7.12502
lthumb -12.6595 35.0772
rfemur -50.0006 -3.79774 38.1093
rtibia 72.2478
rfoot -29.3981 -11.8108
rtoes -5.01255
lfemur -66.11 26.4097 -11.3127
ltibia 125.81
lfoot -18.6451 -4.89407
ltoes -17.3737
341
root 19.9259 14.8886 -18.5227 7.72778 -28.6871 -9.20896
lowerback 24.7758 -1.80555 8.6394
upperback 14.1083 -1.02856 -0.299003
thorax 1.88177 -0.154931 -5.0033
lowerneck 4.06045 -0.936229 -0.733144
upperneck -15.951 -0.0214685 9.53404
head -5.45152 -0.672177 3.12315
rclavicle 8.34896e-015 -9.54166e-015
rhumerus -42.9132 33.0677 -88.3929
rradius 61.8298
rwrist 4.31492
rhand -7.58689 -12.2843
rfingers 7.12502
rthumb 18.3063 -41.4429
lclavicle 8.34896e-015 -9.54166e-015
lhumerus 24.8189 -20.2332 63.1218
lradius 74.3815
lwrist 84.6598
lhand -39.9824 3.80783
lfingers 7.12502
lthumb -12.9508 33.3859
rfemur -49.3691 -3.97422 38.4512
rtibia 72.5559
rfoot -29.8091 -11.8241
rtoes -5.50685
lfemur -68.0759 25.9126 -11.6898
ltibia 125.561
lfoot -18.6514 -4.858
ltoes -17.6572
342
root 19.8863 14.8669 -18.4629 7.52978 -28.9734 -9.46403
lowerback 25.1615 -1.79403 8.70871
upperback 14.1418 -0.973751 -0.297865
thorax 1.74953 -0.132026 -5.05222
lowerneck 4.06976 -0.907444 -0.700276
upperneck -15.9357 0.0249877 9.56754
head -5.45118 -0.65367 3.12547
rclavicle 4.6118e-014 -6.36111e-014
rhumerus -42.6916 33.0761 -88.2803
rradius 61.9351
rwrist 4.34521
rhand -7.63666 -12.2737
rfingers 7.12502
rthumb 18.2584 -41.4368
lclavicle 4.6118e-014 -6.36111e-014
lhumerus 24.6799 -20.0964 63.0056
lradius 74.4599
lwrist 84.6542
lhand -40.3043 2.02857
lfingers 7.12502
lthumb -13.2611 31.5867
rfemur -48.82 -4.09197 38.7489
rtibia 72.8546
rfoot -30.182 -11.8909
rtoes -5.95436
lfemur -69.9488 25.1714 -12.069
ltibia 125.037
lfoot -18.6307 -4.75204
ltoes -17.9328
343
root 19.8461 14.8473 -18.4027 7.37955 -29.2445 -9.67936
lowerback 25.4614 -1.78322 8.73842
upperback 14.1657 -0.934177 -0.304242
thorax 1.64385 -0.11745 -5.08418
lowerneck 4.0838 -0.873954 -0.667821
upperneck -15.914 0.0778913 9.60357
head -5.45 -0.632048 3.12821
rclavicle -1.70955e-014 4.17448e-014
rhumerus -42.4866 33.0821 -88.1861
rradius 62.0389
rwrist 4.36869
rhand -7.68557 -12.2566
rfingers 7.12502
rthumb 18.2114 -41.4241
lclavicle -1.70955e-014 4.17448e-014
lhumerus 24.5224 -19.9521 62.8957
lradius 74.5089
lwrist 84.65
lhand -40.6329 0.271535
lfingers 7.12502
lthumb -13.5778 29.8088
rfemur -48.3355 -4.16927 39.0057
rtibia 73.1401
rfoot -30.5196 -12.0065
rtoes -6.32002
lfemur -71.6816 24.1962 -12.409
ltibia 124.239
lfoot -18.5967 -4.56602
ltoes -18.2065
344
root 19.8052 14.8292 -18.3425 7.28969 -29.5063 -9.85957
lowerback 25.6572 -1.76446 8.74197
upperback 14.1863 -0.898869 -0.324676
thorax 1.58191 -0.103603 -5.11646
lowerneck 4.09476 -0.841408 -0.617301
upperneck -15.8964 0.13164 9.64149
head -5.44976 -0.611358 3.12853
rclavicle -1.47101e-014 1.70955e-014
rhumerus -42.2866 33.0547 -88.1129
rradius 62.1439
rwrist 4.38118
rhand -7.71768 -12.2566
rfingers 7.12502
rthumb 18.1805 -41.4269
lclavicle -1.47101e-014 1.70955e-014
lhumerus 24.3836 -19.826 62.7605
lradius 74.5297
lwrist 84.6595
lhand -40.9311 -1.34352
lfingers 7.12502
lthumb -13.8653 28.1743
rfemur -47.9281 -4.18414 39.2279
rtibia 73.4103
rfoot -30.8161 -12.1717
rtoes -6.5474
lfemur -73.2827 23.0462 -12.6933
ltibia 123.187
lfoot -18.5554 -4.2802
ltoes -18.4918
345
root 19.7638 14.8135 -18.2815 7.23551 -29.7701 -10.0104
lowerback 25.7827 -1.73649 8.71748
upperback 14.2028 -0.863661 -0.349982
thorax 1.54722 -0.0898437 -5.13854
lowerneck 4.11424 -0.807353 -0.567194
upperneck -15.8849 0.187747 9.67697
head -5.45304 -0.589721 3.12818
rclavicle 3.97569e-016 1.27222e-014
rhumerus -42.1158 33.0072 -88.0544
rradius 62.2559
rwrist 4.37752
rhand -7.73383 -12.27
rfingers 7.12502
rthumb 18.1649 -41.4418
lclavicle 3.97569e-016 1.27222e-014
lhumerus 24.2495 -19.7131 62.6259
lradius 74.5193
lwrist 84.6777
lhand -41.147 -2.51384
lfingers 7.12502
lthumb -14.0732 26.9896
rfemur -47.5562 -4.13498 39.4133
rtibia 73.6595
rfoot -31.0762 -12.3724
rtoes -6.59554
lfemur -74.6861 21.7915 -12.8949
ltibia 121.888
lfoot -18.5441 -3.89746
ltoes -18.7601
346
root 19.7219 14.8004 -18.2206 7.20662 -29.9933 -10.1336
lowerback 25.846 -1.71479 8.68691
upperback 14.2214 -0.84288 -0.380294
thorax 1.54162 -0.0816446 -5.1595
lowerneck 4.14185 -0.774146 -0.513286
upperneck -15.8909 0.245132 9.71639
head -5.46323 -0.568804 3.12878
rclavicle 4.69132e-014 5.96354e-015
rhumerus -41.9668 32.9228 -88.0136
rradius 62.3761
rwrist 4.35782
rhand -7.74768 -12.2776
rfingers 7.12502
rthumb 18.1516 -41.4506
lclavicle 4.69132e-014 5.96354e-015
lhumerus 24.1366 -19.618 62.4854
lradius 74.4767
lwrist 84.697
lhand -41.3178 -3.27811
lfingers 7.12502
lthumb -14.2379 26.2139
rfemur -47.216 -4.0519 39.5714
rtibia 73.8827
rfoot -31.2984 -12.6187
rtoes -6.46572
lfemur -75.902 20.4191 -13.0062
ltibia 120.349
lfoot -18.5507 -3.40182
ltoes -19.0085
347
root 19.6797 14.7891 -18.1606 7.20821 -30.198 -10.2315
lowerback 25.8633 -1.68911 8.63433
upperback 14.2321 -0.824609 -0.409922
thorax 1.54715 -0.0753607 -5.16668
lowerneck 4.17859 -0.73854 -0.467997
upperneck -15.9043 0.306085 9.75685
head -5.4775 -0.54617 3.13116
rclavicle 2.22639e-014 -1.47101e-014
rhumerus -41.8557 32.8223 -87.9931
rradius 62.4983
rwrist 4.31454
rhand -7.75795 -12.3067
rfingers 7.12502
rthumb 18.1417 -41.4807
lclavicle 2.22639e-014 -1.47101e-014
lhumerus 24.0359 -19.5358 62.3558
lradius 74.4024
lwrist 84.7173
lhand -41.3981 -3.57251
lfingers 7.12502
lthumb -14.3153 25.914
rfemur -46.9153 -3.91072 39.7036
rtibia 74.0804
rfoot -31.4728 -12.9017
rtoes -6.14369
lfemur -76.9512 18.9998 -13.0391
ltibia 118.584
lfoot -18.5758 -2.80794
ltoes -19.2252
348
root 19.6372 14.7805 -18.1009 7.20686 -30.3475 -10.3001
lowerback 25.8607 -1.6777 8.57971
upperback 14.241 -0.825504 -0.438395
thorax 1.55682 -0.0782662 -5.16683
lowerneck 4.21781 -0.703017 -0.428056
upperneck -15.9188 0.366545 9.79629
head -5.49246 -0.523471 3.13415
rclavicle -2.74323e-014 -2.3059e-014
rhumerus -41.7873 32.7005 -87.9946
rradius 62.6221
rwrist 4.26298
rhand -7.77879 -12.3289
rfingers 7.12502
rthumb 18.1217 -41.5047
lclavicle -2.74323e-014 -2.3059e-014
lhumerus 23.9444 -19.4683 62.2413
lradius 74.3017
lwrist 84.7381
lhand -41.4454 -3.74082
lfingers 7.12502
lthumb -14.3608 25.7425
rfemur -46.6202 -3.75401 39.8045
rtibia 74.2481
rfoot -31.6132 -13.2099
rtoes -5.68843
lfemur -77.802 17.5308 -12.9984
ltibia 116.592
lfoot -18.6115 -2.14746
ltoes -19.3268
349
root 19.5944 14.775 -18.0418 7.19629 -30.437 -10.3404
lowerback 25.8469 -1.67993 8.52942
upperback 14.2498 -0.842746 -0.465149
thorax 1.56924 -0.0886312 -5.16363
lowerneck 4.25743 -0.671697 -0.391083
upperneck -15.9333 0.420993 9.83516
head -5.50716 -0.503496 3.13778
rclavicle 2.18663e-014 -7.95139e-015
rhumerus -41.7601 32.5498 -88.0175
rradius 62.7413
rwrist 4.21463
rhand -7.80417 -12.3435
rfingers 7.12502
rthumb 18.0973 -41.5216
lclavicle 2.18663e-014 -7.95139e-015
lhumerus 23.8766 -19.4245 62.1388
lradius 74.179
lwrist 84.7639
lhand -41.4707 -3.8904
lfingers 7.12502
lthumb -14.3852 25.5911
rfemur -46.3243 -3.5899 39.8751
rtibia 74.3849
rfoot -31.7367 -13.5147
rtoes -5.10347
lfemur -78.4588 16.0371 -12.8964
ltibia 114.371
lfoot -18.6547 -1.45715
ltoes -19.3642
350
root 19.5515 14.7725 -17.9832 7.17314 -30.491 -10.3621
lowerback 25.8329 -1.69164 8.47787
upperback 14.2567 -0.8714 -0.486684
thorax 1.57772 -0.105014 -5.15117
lowerneck 4.29982 -0.64119 -0.370096
upperneck -15.9385 0.471433 9.868
head -5.51916 -0.483756 3.14223
rclavicle -1.03368e-014 1.03368e-014
rhumerus -41.7786 32.4033 -88.0627
rradius 62.8463
rwrist 4.17942
rhand -7.83008 -12.3536
rfingers 7.12502
rthumb 18.0723 -41.534
lclavicle -1.03368e-014 1.03368e-014
lhumerus 23.8152 -19.3869 62.0603
lradius 74.0382
lwrist 84.7948
lhand -41.4832 -3.95216
lfingers 7.12502
lthumb -14.3973 25.5285
rfemur -46.0131 -3.40721 39.9205
rtibia 74.4892
rfoot -31.8409 -13.8163
rtoes -4.50696
lfemur -78.9219 14.581 -12.7438
ltibia 111.928
lfoot -18.7021 -0.794776
ltoes -19.2858
351
root 19.5083 14.7728 -17.9249 7.12781 -30.5154 -10.3694
lowerback 25.8392 -1.70857 8.41962
upperback 14.259 -0.905232 -0.495821
thorax 1.57067 -0.125613 -5.11988
lowerneck 4.345 -0.613589 -0.371651
upperneck -15.9289 0.513467 9.89195
head -5.5264 -0.465549 3.14783
rclavicle -2.8625e-014 2.46493e-014
rhumerus -41.8474 32.2701 -88.1248
rradius 62.9339
rwrist 4.16527
rhand -7.86969 -12.3352
rfingers 7.12502
rthumb 18.0342 -41.5191
lclavicle -2.8625e-014 2.46493e-014
lhumerus 23.7535 -19.3583 62.0214
lradius 73.8813
lwrist 84.8259
lhand -41.4953 -4.02888
lfingers 7.12502
lthumb -14.4089 25.451
rfemur -45.6708 -3.21254 39.9439
rtibia 74.561
rfoot -31.9395 -14.0989
rtoes -3.95124
lfemur -79.1827 13.1923 -12.561
ltibia 109.264
lfoot -18.7788 -0.160455
ltoes -19.1549
352
root 19.4647 14.7756 -17.8666 7.07004 -30.5297 -10.3676
lowerback 25.8388 -1.72673 8.37063
upperback 14.2658 -0.939541 -0.507933
thorax 1.57216 -0.145209 -5.09707
lowerneck 4.39479 -0.589863 -0.382561
upperneck -15.9147 0.548722 9.91312
head -5.53266 -0.449786 3.15445
rclavicle -3.57812e-014 1.19271e-014
rhumerus -41.9454 32.1419 -88.2154
rradius 62.9953
rwrist 4.18246
rhand -7.88935 -12.321
rfingers 7.12502
rthumb 18.0153 -41.5067
lclavicle -3.57812e-014 1.19271e-014
lhumerus 23.7074 -19.3454 61.9896
lradius 73.7186
lwrist 84.861
lhand -41.5255 -4.18723
lfingers 7.12502
lthumb -14.438 25.2905
rfemur -45.3032 -3.00096 39.9512
rtibia 74.6029
rfoot -32.0413 -14.3482
rtoes -3.45262
lfemur -79.2596 11.9136 -12.3723
ltibia 106.39
lfoot -18.8822 0.446411
ltoes -19.0374
353
root 19.4207 14.7813 -17.8082 6.98832 -30.5102 -10.3552
lowerback 25.8494 -1.75485 8.32473
upperback 14.2718 -0.984106 -0.509549
thorax 1.56619 -0.17044 -5.0619
lowerneck 4.4567 -0.569663 -0.41655
upperneck -15.8946 0.576021 9.92877
head -5.5386 -0.436103 3.16361
rclavicle -3.4191e-014 3.81667e-014
rhumerus -42.0858 32.04 -88.3227
rradius 63.0376
rwrist 4.22039
rhand -7.89674 -12.2928
rfingers 7.12502
rthumb 18.0082 -41.4791
lclavicle -3.4191e-014 3.81667e-014
lhumerus 23.6557 -19.3385 61.992
lradius 73.5546
lwrist 84.8871
lhand -41.5739 -4.36571
lfingers 7.12502
lthumb -14.4847 25.1087
rfemur -44.9003 -2.81558 39.9459
rtibia 74.6149
rfoot -32.1628 -14.5567
rtoes -3.0313
lfemur -79.1454 10.7287 -12.1975
ltibia 103.301
lfoot -19.0328 1.05803
ltoes -18.9619
